<svg width="47.774" height="47.774" version="1.1" xml:space="preserve" xmlns="http://www.w3.org/2000/svg">
<path d="m23.887 0.03125c-13.14 0-23.855 10.715-23.855 23.855s10.716 23.857 23.855 23.857c13.14 0 23.857-10.718 23.857-23.857 0-3.5347-0.78636-6.8877-2.1758-9.9102h-6.4629l-5.9609-5.9648v-6.0918c-2.8505-1.2083-5.9755-1.8887-9.2578-1.8887zm0 2.6992c2.3047 0 4.4793 0.4677 6.5586 1.1582v4.123a2.6987 2.6987 0 0 0 0.79102 1.9082l5.9609 5.9648a2.6987 2.6987 0 0 0 1.9082 0.79102h4.543c0.83673 2.2667 1.3965 4.66 1.3965 7.2109 0 11.672-9.4857 21.158-21.158 21.158-11.672 0-21.156-9.4854-21.156-21.158-1e-7 -11.673 9.4833-21.156 21.156-21.156z" fill="#b3b3b3"/>
</svg>
