<?xml version="1.0" encoding="UTF-8"?><svg id="a" xmlns="http://www.w3.org/2000/svg" viewBox="0 0 230.5 142.78"><path d="m6.5,116.8c0-.69.35-1.04,1.04-1.04s1.04.35,1.04,1.04v5.2h4.16c1.14,0,2.12.4,2.94,1.2s1.22,1.76,1.22,2.88v9.43c0,.69-.35,1.04-1.04,1.04s-1.04-.35-1.04-1.04v-9.35c0-.59-.2-1.08-.6-1.48-.4-.4-.89-.6-1.48-.6h-4.16v11.43c0,.69-.35,1.04-1.04,1.04s-1.04-.35-1.04-1.04v-18.71Z"/><path d="m25.19,136.55c-1.17,0-2.15-.4-2.95-1.21s-1.2-1.79-1.2-2.95c0-.76.18-1.45.55-2.09.79-1.38,1.99-2.06,3.61-2.06h4.16v-2.08c0-.59-.2-1.08-.6-1.48-.4-.4-.89-.6-1.48-.6h-4.16c-.69,0-1.04-.35-1.04-1.04s.35-1.04,1.04-1.04h4.16c1.17,0,2.15.4,2.95,1.21.8.8,1.21,1.79,1.21,2.95v9.35c0,.69-.35,1.04-1.04,1.04h-5.2Zm4.16-6.24h-4.16c-.58,0-1.07.2-1.47.61s-.61.9-.61,1.47.21,1.05.61,1.46.9.61,1.46.61h4.16v-4.16Z"/><path d="m37.86,126.15v6.24c0,.57.21,1.05.61,1.46s.9.61,1.46.61h3.12c.69,0,1.04.35,1.04,1.04s-.35,1.04-1.04,1.04h-3.12c-1.17,0-2.15-.4-2.95-1.21s-1.2-1.79-1.2-2.95v-6.24c0-1.17.4-2.15,1.2-2.95.8-.8,1.79-1.21,2.95-1.21h3.12c.69,0,1.04.35,1.04,1.04s-.35,1.04-1.04,1.04h-3.12c-.58,0-1.07.2-1.47.61s-.61.9-.61,1.47Z"/><path d="m50.31,129.77v5.73c0,.69-.35,1.04-1.04,1.04s-1.04-.35-1.04-1.04v-18.71c0-.69.35-1.04,1.04-1.04s1.04.35,1.04,1.04v10.38l6.65-4.98c.18-.14.39-.21.63-.21.69,0,1.04.34,1.04,1.03,0,.36-.14.63-.42.83l-4.04,3.02,4.34,8.14c.08.14.12.3.12.49,0,.28-.1.53-.31.73-.2.2-.45.31-.73.31-.41,0-.71-.18-.91-.55l-4.18-7.84-2.18,1.61Z"/><path d="m71.06,132.91c0-.66-.29-1.13-.88-1.41l-5.34-2.57c-1.4-.67-2.09-1.77-2.09-3.3,0-1.2.49-2.13,1.48-2.78.85-.57,1.91-.85,3.18-.85,1.54,0,2.92.39,4.14,1.16.37.23.55.54.55.92,0,.29-.1.53-.31.74-.2.21-.45.31-.73.31-.19,0-.35-.04-.49-.13-1-.61-2.05-.91-3.17-.91-1.72,0-2.58.52-2.58,1.55,0,.65.28,1.12.85,1.39l5.39,2.61c1.39.67,2.08,1.77,2.08,3.29,0,1.26-.5,2.21-1.5,2.83-.85.54-1.95.8-3.29.8-2,0-3.67-.38-5.02-1.15-.39-.22-.58-.53-.58-.93,0-.28.1-.53.31-.73.21-.2.45-.31.73-.31.14,0,.27.03.39.08.34.15.83.34,1.48.58.95.25,1.86.38,2.76.38,1.76,0,2.65-.52,2.65-1.55Z"/><path d="m77.28,123.04c0-.69.35-1.04,1.04-1.04h5.2c1.17,0,2.15.4,2.95,1.21.8.8,1.21,1.79,1.21,2.95v6.24c0,1.15-.4,2.14-1.21,2.94-.8.81-1.79,1.21-2.95,1.21h-4.16v5.2c0,.69-.35,1.04-1.04,1.04s-1.04-.35-1.04-1.04v-18.71Zm2.08,1.04v10.39h4.16c.58,0,1.07-.2,1.47-.61.4-.4.61-.89.61-1.47v-6.24c0-.59-.2-1.08-.6-1.48-.4-.4-.89-.6-1.48-.6h-4.16Z"/><path d="m95.96,136.55c-1.17,0-2.15-.4-2.95-1.21s-1.2-1.79-1.2-2.95c0-.76.18-1.45.55-2.09.79-1.38,1.99-2.06,3.61-2.06h4.16v-2.08c0-.59-.2-1.08-.6-1.48-.4-.4-.89-.6-1.48-.6h-4.16c-.69,0-1.04-.35-1.04-1.04s.35-1.04,1.04-1.04h4.16c1.17,0,2.15.4,2.95,1.21.8.8,1.21,1.79,1.21,2.95v9.35c0,.69-.35,1.04-1.04,1.04h-5.2Zm4.16-6.24h-4.16c-.58,0-1.07.2-1.47.61s-.61.9-.61,1.47.21,1.05.61,1.46.9.61,1.46.61h4.16v-4.16Z"/><path d="m108.63,126.15v6.24c0,.57.21,1.05.61,1.46s.9.61,1.46.61h3.12c.69,0,1.04.35,1.04,1.04s-.35,1.04-1.04,1.04h-3.12c-1.17,0-2.15-.4-2.95-1.21s-1.2-1.79-1.2-2.95v-6.24c0-1.17.4-2.15,1.2-2.95.8-.8,1.79-1.21,2.95-1.21h3.12c.69,0,1.04.35,1.04,1.04s-.35,1.04-1.04,1.04h-3.12c-.58,0-1.07.2-1.47.61s-.61.9-.61,1.47Z"/><path d="m120.81,130.31v2.08c0,.57.21,1.05.61,1.46s.9.61,1.46.61h5.2c.69,0,1.04.35,1.04,1.04s-.35,1.04-1.04,1.04h-5.2c-1.17,0-2.15-.4-2.95-1.21s-1.2-1.79-1.2-2.95v-5.2c0-1.44.51-2.66,1.52-3.68,1.01-1.01,2.24-1.52,3.68-1.52s2.69.5,3.69,1.5c1,1,1.5,2.23,1.5,3.69v3.12h-8.32Zm3.12-6.24c-.86,0-1.6.3-2.2.91s-.91,1.34-.91,2.21v1.04h6.24v-1.04c0-.86-.3-1.6-.91-2.21-.61-.61-1.34-.91-2.21-.91Z"/><path d="m148.28,129.77v5.73c0,.69-.35,1.04-1.04,1.04s-1.04-.35-1.04-1.04v-18.71c0-.69.35-1.04,1.04-1.04s1.04.35,1.04,1.04v10.38l6.65-4.98c.18-.14.39-.21.63-.21.69,0,1.04.34,1.04,1.03,0,.36-.14.63-.42.83l-4.04,3.02,4.34,8.14c.08.14.12.3.12.49,0,.28-.1.53-.31.73-.2.2-.45.31-.73.31-.41,0-.71-.18-.91-.55l-4.18-7.84-2.18,1.61Z"/><path d="m164.59,136.55c-1.17,0-2.15-.4-2.95-1.21s-1.2-1.79-1.2-2.95c0-.76.18-1.45.55-2.09.79-1.38,1.99-2.06,3.61-2.06h4.16v-2.08c0-.59-.2-1.08-.6-1.48-.4-.4-.89-.6-1.48-.6h-4.16c-.69,0-1.04-.35-1.04-1.04s.35-1.04,1.04-1.04h4.16c1.17,0,2.15.4,2.95,1.21.8.8,1.21,1.79,1.21,2.95v9.35c0,.69-.35,1.04-1.04,1.04h-5.2Zm4.16-6.24h-4.16c-.58,0-1.07.2-1.47.61s-.61.9-.61,1.47.21,1.05.61,1.46.9.61,1.46.61h4.16v-4.16Z"/><path d="m183.28,132.91c0-.66-.29-1.13-.88-1.41l-5.34-2.57c-1.4-.67-2.09-1.77-2.09-3.3,0-1.2.49-2.13,1.48-2.78.85-.57,1.91-.85,3.18-.85,1.54,0,2.92.39,4.14,1.16.37.23.55.54.55.92,0,.29-.1.53-.31.74-.2.21-.45.31-.73.31-.19,0-.35-.04-.49-.13-1-.61-2.05-.91-3.17-.91-1.72,0-2.58.52-2.58,1.55,0,.65.28,1.12.85,1.39l5.39,2.61c1.39.67,2.08,1.77,2.08,3.29,0,1.26-.5,2.21-1.5,2.83-.85.54-1.95.8-3.29.8-2,0-3.67-.38-5.02-1.15-.39-.22-.58-.53-.58-.93,0-.28.1-.53.31-.73.21-.2.45-.31.73-.31.14,0,.27.03.39.08.34.15.83.34,1.48.58.95.25,1.86.38,2.76.38,1.76,0,2.65-.52,2.65-1.55Z"/><path d="m197.77,132.91c0-.66-.29-1.13-.88-1.41l-5.34-2.57c-1.4-.67-2.09-1.77-2.09-3.3,0-1.2.49-2.13,1.48-2.78.85-.57,1.91-.85,3.18-.85,1.54,0,2.92.39,4.14,1.16.37.23.55.54.55.92,0,.29-.1.53-.31.74-.2.21-.45.31-.73.31-.19,0-.35-.04-.49-.13-1-.61-2.05-.91-3.17-.91-1.72,0-2.58.52-2.58,1.55,0,.65.28,1.12.85,1.39l5.39,2.61c1.39.67,2.08,1.77,2.08,3.29,0,1.26-.5,2.21-1.5,2.83-.85.54-1.95.8-3.29.8-2,0-3.67-.38-5.02-1.15-.39-.22-.58-.53-.58-.93,0-.28.1-.53.31-.73.21-.2.45-.31.73-.31.14,0,.27.03.39.08.34.15.83.34,1.48.58.95.25,1.86.38,2.76.38,1.76,0,2.65-.52,2.65-1.55Z"/><path d="m206.07,130.31v2.08c0,.57.21,1.05.61,1.46s.9.61,1.46.61h5.2c.69,0,1.04.35,1.04,1.04s-.35,1.04-1.04,1.04h-5.2c-1.17,0-2.15-.4-2.95-1.21s-1.2-1.79-1.2-2.95v-5.2c0-1.44.51-2.66,1.52-3.68,1.01-1.01,2.24-1.52,3.68-1.52s2.69.5,3.69,1.5c1,1,1.5,2.23,1.5,3.69v3.12h-8.32Zm3.12-6.24c-.86,0-1.6.3-2.2.91s-.91,1.34-.91,2.21v1.04h6.24v-1.04c0-.86-.3-1.6-.91-2.21-.61-.61-1.34-.91-2.21-.91Z"/><path d="m218.56,116.8c0-.69.35-1.04,1.04-1.04s1.04.35,1.04,1.04v16.63c0,.54.35.88,1.04,1.04.69.16,1.04.5,1.04,1.04,0,.69-.35,1.04-1.04,1.04-.93,0-1.69-.28-2.26-.83-.57-.55-.86-1.31-.86-2.29v-16.63Z"/><path id="b" d="m174.04,1.5c10.8,0,20.89,3.14,29.4,8.56v8.84l6.87,6.87h9.28c5.93,8.77,9.4,19.34,9.4,30.69,0,30.27-24.69,54.96-54.96,54.96s-54.96-24.69-54.96-54.96S143.77,1.5,174.04,1.5Z" fill="none" stroke="#231f20" stroke-miterlimit="10" stroke-width="3"/><path d="m100.52,25.77h-9.28l-6.87-6.87v-8.84c-8.51-5.42-18.6-8.56-29.4-8.56C24.69,1.5,0,26.19,0,56.46s24.69,54.96,54.96,54.96,54.96-24.69,54.96-54.96c0-11.35-3.47-21.92-9.4-30.69ZM31.33,45.26c1.49,0,2.22.74,2.22,2.22s-.74,2.24-2.22,2.24h-6.68v24.51c0,1.49-.74,2.22-2.22,2.22s-2.24-.74-2.24-2.22v-24.51h-2.22c-1.49,0-2.24-.75-2.24-2.24s.75-2.22,2.24-2.22h2.22v-4.46c0-2.49.86-4.61,2.6-6.33,1.73-1.72,3.84-2.58,6.3-2.58h2.24c1.49,0,2.22.74,2.22,2.22s-.74,2.23-2.22,2.23h-2.22c-1.24,0-2.29.44-3.16,1.3-.86.86-1.3,1.91-1.3,3.15v4.46h6.68Zm17.82,31.19c-2,0-3.62-.59-4.84-1.77-1.23-1.18-1.84-2.81-1.84-4.91v-35.65c0-1.49.75-2.22,2.24-2.22s2.22.74,2.22,2.22v35.65c0,1.15.74,1.89,2.22,2.22,1.49.35,2.22,1.08,2.22,2.23,0,1.49-.74,2.22-2.22,2.22Zm15.59-2.22c0,1.49-.74,2.22-2.22,2.22s-2.24-.74-2.24-2.22v-26.74c0-1.49.75-2.22,2.24-2.22s2.22.74,2.22,2.22v26.74Zm0-37.87c0,1.49-.74,2.22-2.22,2.22s-2.24-.74-2.24-2.22v-2.23c0-1.49.75-2.22,2.24-2.22s2.22.74,2.22,2.22v2.23Zm31.19,31.19c0,2.47-.86,4.57-2.58,6.3-1.73,1.74-3.84,2.6-6.33,2.6h-8.92v11.14c0,1.49-.74,2.22-2.22,2.22s-2.24-.74-2.24-2.22v-40.11c0-1.49.74-2.22,2.22-2.22h11.14c2.5,0,4.61.86,6.34,2.58,1.72,1.73,2.58,3.84,2.58,6.33v13.38Z" fill-rule="evenodd"/><path d="m87.01,49.72h-8.91v22.27h8.91c1.24,0,2.29-.44,3.16-1.3.86-.86,1.3-1.91,1.3-3.16v-13.35c0-1.27-.43-2.33-1.28-3.18-.86-.85-1.91-1.28-3.18-1.28Z" fill-rule="evenodd"/><path id="c" d="m136.37,54.88c0-1.61.39-3.11,1.19-4.48,1.68-2.95,4.26-4.42,7.73-4.42h8.91v-11.14c0-1.49.75-2.22,2.24-2.22s2.22.74,2.22,2.22v40.11c0,1.49-.74,2.22-2.22,2.22h-11.14c-2.5,0-4.61-.86-6.34-2.58-1.72-1.73-2.58-3.84-2.58-6.33v-13.38Zm8.92-4.45c-1.24,0-2.29.44-3.16,1.3-.86.86-1.3,1.91-1.3,3.16v13.35c0,1.22.44,2.27,1.31,3.15.88.88,1.92,1.31,3.15,1.31h8.91v-22.27h-8.91" fill-rule="evenodd"/><path id="d" d="m167.56,66.03v-8.91c0-3.09,1.08-5.72,3.26-7.88,2.17-2.18,4.79-3.26,7.88-3.26s5.77,1.07,7.92,3.23c2.15,2.14,3.23,4.78,3.23,7.92v8.91c0,3.09-1.08,5.72-3.26,7.88-2.17,2.18-4.79,3.26-7.88,3.26s-5.72-1.08-7.88-3.26c-2.18-2.17-3.26-4.79-3.26-7.88h0Zm17.83,0v-8.91c0-1.84-.66-3.42-1.96-4.72-1.3-1.3-2.88-1.96-4.72-1.96s-3.42.66-4.72,1.96c-1.3,1.3-1.96,2.88-1.96,4.72v8.91c0,1.87.64,3.45,1.94,4.75,1.3,1.29,2.88,1.94,4.75,1.94s3.42-.66,4.72-1.96c1.3-1.3,1.96-2.88,1.96-4.72" fill-rule="evenodd"/><path id="e" d="m203.21,50.44h-2.22c-1.49,0-2.24-.75-2.24-2.24s.75-2.22,2.24-2.22h2.22v-11.14c0-1.49.75-2.22,2.24-2.22s2.22.74,2.22,2.22v11.14h6.68c1.49,0,2.22.74,2.22,2.22s-.74,2.24-2.22,2.24h-6.68v24.51c0,1.49-.74,2.22-2.22,2.22s-2.24-.74-2.24-2.22v-24.51" fill-rule="evenodd"/></svg>