<?xml version="1.0" encoding="UTF-8" standalone="no"?>
<svg
   id="a"
   viewBox="0 0 230.49001 112.92"
   version="1.1"
   width="230.49001"
   height="112.92"
   xmlns="http://www.w3.org/2000/svg"
   xmlns:svg="http://www.w3.org/2000/svg">
  <defs
     id="defs43" />
  <path
     id="b"
     d="m 174.04,1.5 c 10.8,0 20.89,3.14 29.4,8.56 v 8.84 l 6.87,6.87 h 9.28 c 5.93,8.77 9.4,19.34 9.4,30.69 0,30.27 -24.69,54.96 -54.96,54.96 -30.27,0 -54.96,-24.69 -54.96,-54.96 0,-30.27 24.7,-54.96 54.97,-54.96 z"
     fill="none"
     stroke="#231f20"
     stroke-miterlimit="10"
     stroke-width="3" />
  <path
     d="M 100.52,25.77 H 91.24 L 84.37,18.9 V 10.06 C 75.86,4.64 65.77,1.5 54.97,1.5 24.69,1.5 0,26.19 0,56.46 c 0,30.27 24.69,54.96 54.96,54.96 30.27,0 54.96,-24.69 54.96,-54.96 0,-11.35 -3.47,-21.92 -9.4,-30.69 z M 31.33,45.26 c 1.49,0 2.22,0.74 2.22,2.22 0,1.48 -0.74,2.24 -2.22,2.24 h -6.68 v 24.51 c 0,1.49 -0.74,2.22 -2.22,2.22 -1.48,0 -2.24,-0.74 -2.24,-2.22 V 49.72 h -2.22 c -1.49,0 -2.24,-0.75 -2.24,-2.24 0,-1.49 0.75,-2.22 2.24,-2.22 h 2.22 V 40.8 c 0,-2.49 0.86,-4.61 2.6,-6.33 1.73,-1.72 3.84,-2.58 6.3,-2.58 h 2.24 c 1.49,0 2.22,0.74 2.22,2.22 0,1.48 -0.74,2.23 -2.22,2.23 h -2.22 c -1.24,0 -2.29,0.44 -3.16,1.3 -0.86,0.86 -1.3,1.91 -1.3,3.15 v 4.46 h 6.68 z m 17.82,31.19 c -2,0 -3.62,-0.59 -4.84,-1.77 -1.23,-1.18 -1.84,-2.81 -1.84,-4.91 V 34.12 c 0,-1.49 0.75,-2.22 2.24,-2.22 1.49,0 2.22,0.74 2.22,2.22 v 35.65 c 0,1.15 0.74,1.89 2.22,2.22 1.49,0.35 2.22,1.08 2.22,2.23 0,1.49 -0.74,2.22 -2.22,2.22 z m 15.59,-2.22 c 0,1.49 -0.74,2.22 -2.22,2.22 -1.48,0 -2.24,-0.74 -2.24,-2.22 V 47.49 c 0,-1.49 0.75,-2.22 2.24,-2.22 1.49,0 2.22,0.74 2.22,2.22 z m 0,-37.87 c 0,1.49 -0.74,2.22 -2.22,2.22 -1.48,0 -2.24,-0.74 -2.24,-2.22 v -2.23 c 0,-1.49 0.75,-2.22 2.24,-2.22 1.49,0 2.22,0.74 2.22,2.22 z m 31.19,31.19 c 0,2.47 -0.86,4.57 -2.58,6.3 -1.73,1.74 -3.84,2.6 -6.33,2.6 H 78.1 v 11.14 c 0,1.49 -0.74,2.22 -2.22,2.22 -1.48,0 -2.24,-0.74 -2.24,-2.22 V 47.48 c 0,-1.49 0.74,-2.22 2.22,-2.22 H 87 c 2.5,0 4.61,0.86 6.34,2.58 1.72,1.73 2.58,3.84 2.58,6.33 v 13.38 z"
     fill-rule="evenodd"
     id="path33" />
  <path
     d="M 87.01,49.72 H 78.1 v 22.27 h 8.91 c 1.24,0 2.29,-0.44 3.16,-1.3 0.86,-0.86 1.3,-1.91 1.3,-3.16 V 54.18 c 0,-1.27 -0.43,-2.33 -1.28,-3.18 -0.86,-0.85 -1.91,-1.28 -3.18,-1.28 z"
     fill-rule="evenodd"
     id="path35" />
  <path
     id="c"
     d="m 136.37,54.88 c 0,-1.61 0.39,-3.11 1.19,-4.48 1.68,-2.95 4.26,-4.42 7.73,-4.42 h 8.91 V 34.84 c 0,-1.49 0.75,-2.22 2.24,-2.22 1.49,0 2.22,0.74 2.22,2.22 v 40.11 c 0,1.49 -0.74,2.22 -2.22,2.22 H 145.3 c -2.5,0 -4.61,-0.86 -6.34,-2.58 -1.72,-1.73 -2.58,-3.84 -2.58,-6.33 V 54.88 Z m 8.92,-4.45 c -1.24,0 -2.29,0.44 -3.16,1.3 -0.86,0.86 -1.3,1.91 -1.3,3.16 v 13.35 c 0,1.22 0.44,2.27 1.31,3.15 0.88,0.88 1.92,1.31 3.15,1.31 h 8.91 V 50.43 h -8.91"
     fill-rule="evenodd" />
  <path
     id="d"
     d="m 167.56,66.03 v -8.91 c 0,-3.09 1.08,-5.72 3.26,-7.88 2.17,-2.18 4.79,-3.26 7.88,-3.26 3.09,0 5.77,1.07 7.92,3.23 2.15,2.14 3.23,4.78 3.23,7.92 v 8.91 c 0,3.09 -1.08,5.72 -3.26,7.88 -2.17,2.18 -4.79,3.26 -7.88,3.26 -3.09,0 -5.72,-1.08 -7.88,-3.26 -2.18,-2.17 -3.26,-4.79 -3.26,-7.88 v 0 z m 17.83,0 v -8.91 c 0,-1.84 -0.66,-3.42 -1.96,-4.72 -1.3,-1.3 -2.88,-1.96 -4.72,-1.96 -1.84,0 -3.42,0.66 -4.72,1.96 -1.3,1.3 -1.96,2.88 -1.96,4.72 v 8.91 c 0,1.87 0.64,3.45 1.94,4.75 1.3,1.29 2.88,1.94 4.75,1.94 1.87,0 3.42,-0.66 4.72,-1.96 1.3,-1.3 1.96,-2.88 1.96,-4.72"
     fill-rule="evenodd" />
  <path
     id="e"
     d="m 203.21,50.44 h -2.22 c -1.49,0 -2.24,-0.75 -2.24,-2.24 0,-1.49 0.75,-2.22 2.24,-2.22 h 2.22 V 34.84 c 0,-1.49 0.75,-2.22 2.24,-2.22 1.49,0 2.22,0.74 2.22,2.22 v 11.14 h 6.68 c 1.49,0 2.22,0.74 2.22,2.22 0,1.48 -0.74,2.24 -2.22,2.24 h -6.68 v 24.51 c 0,1.49 -0.74,2.22 -2.22,2.22 -1.48,0 -2.24,-0.74 -2.24,-2.22 V 50.44"
     fill-rule="evenodd" />
</svg>
