<svg version="1" xmlns="http://www.w3.org/2000/svg" width="933.333" height="933.333" viewBox="0 0 700.000000 700.000000"><path d="M339.7.6c-.1.1-5.6.4-12.2.8-6.6.3-13.1.8-14.5 1.1-1.4.2-5.1.7-8.3 1-3.2.3-8.2 1-11 1.6-2.9.5-6.8 1.2-8.7 1.5-1.9.3-7.3 1.5-12 2.6s-9.4 2.1-10.4 2.3c-6.8 1.5-34.5 10.8-46.1 15.7-55.2 22.9-103.2 59.4-140.4 106.4-22.2 28.1-33.1 46.8-51.2 87.9-.4 1.1-1.5 3.8-2.2 6-.8 2.2-2.4 6.7-3.5 10-4.7 13.4-10.1 33.7-12.5 47.5-.3 1.4-.8 4.3-1.2 6.5-.4 2.2-.9 4.8-1.1 5.7-.1.9-.6 4.8-.9 8.5-.4 3.7-.9 7.1-1.1 7.4-.6 1-1.8 25.4-1.8 36.9.1 11.8 1.2 35.2 1.9 37.3.2.7.6 4.1 1 7.6.3 3.6.7 6.7.9 7 .2.3.6 2.9 1 5.8.3 2.8.8 5.7 1 6.5.3.7.7 2.9 1 4.9 1 6.9 7.5 30.5 11.9 43.6C42.6 531.1 88 591.9 147.5 634.6c45.3 32.5 106 56.3 158 62 2.2.3 5.4.6 7 .9 15.8 2.2 62.4 2.3 74 .1 1.1-.2 4.7-.7 8-1 7.8-.9 12.6-1.6 14.5-2.1.8-.2 3.1-.7 5-1 14.6-2.3 60.2-15.4 64.5-18.5.6-.4 2.1-1.1 3.5-1.5 4.1-1.2 30.6-14.1 40.4-19.7 73.9-42 131.2-111.3 158.5-191.8 4-11.7 10.4-34.9 11.6-42.2.3-1.8 1.2-6.7 2-10.8.7-4.1 1.6-10.2 2-13.5.4-3.3.8-7.1 1.1-8.5.8-5.3 1.8-26 1.8-38.5-.1-24.1-1.6-39.8-5.9-62-.8-3.9-1.7-8.6-2-10.5-2.8-16.7-17.8-60.3-26.9-78-6.8-13.2-12.9-24.1-18.3-32.7l-6.5-10.3-28.1-.1c-15.5-.1-28.8-.1-29.5 0-.7.1-11.2-9.7-23.2-21.7l-22-22-.2-28.3-.3-28.3-9-5.4c-21.3-12.6-46.3-23.8-70-31.5-13.5-4.3-35.3-10-42.5-11.1-1.9-.3-7.8-1.2-13-2-12-1.8-17.3-2.4-28-3.2-8.4-.6-33.8-1.2-34.3-.8zm-38 198.1c8.2 3.8 7.7 20.9-.8 24.9-1.3.7-8.2 1.4-15.4 1.6-10.5.4-13.9.9-17.5 2.6-7.5 3.5-13.3 10.3-15.6 18.2-.6 2-1.2 10.8-1.3 19.7l-.1 16.2h22.2c12.3 0 23.7.3 25.3.6 10.8 2.1 12.5 21.2 2.2 26.3-1.8.9-9.3 1.3-26 1.3l-23.5.1-.1 79.8c0 87.8.2 85.2-6 88.3-3.6 1.8-13.4 1.7-16.7-.1-1.2-.6-2.9-2.7-3.8-4.6-1.4-3.1-1.6-11.5-1.6-83.4v-80l-9.6-.1c-10.9-.2-14.5-1.5-17-6.2-2.8-5.6-2.2-14.2 1.4-18.2 2.2-2.5 8.5-3.9 17.4-3.8l7.8.1.1-17.8c.1-19.5.2-21.4 2.5-28.7 5.5-17.4 21-31.9 39.5-36.9 7.5-2.1 32.2-2 36.6.1zm176.5.2c4.6.2 8.5 4.4 9.3 10.2.6 3.9.8 258.6.3 263.6-.3 2.7-5.4 7.4-8.9 8.2-2 .5-22.2.7-45 .6-36.1-.2-42.1-.4-46.9-2-18.8-5.9-33.1-20.4-38.6-39-1.6-5.4-1.8-11.2-1.9-55-.1-58 .3-61.8 8.5-75.5 8.4-13.9 22-23.4 36.8-25.7 2.6-.4 18.7-.7 35.7-.7 17.7-.1 31.3-.5 31.7-1 .3-.5.6-17.4.6-37.5.1-20.9.5-37.7 1-39.1 1.8-4.7 8.2-8.3 13.2-7.4.8.1 2.7.3 4.2.3z"/><path d="M397.2 312.6c-6.4 1.4-10.1 3.5-14.2 8.1-4 4.4-5.9 7.4-7.2 11.7-.5 1.7-.9 24.3-.9 50.3.1 44.7.2 47.4 2.1 52.5 2.4 6.4 8.4 12.7 15.3 15.9 4.6 2.1 6 2.2 35.4 2.3 16.8.1 30.9-.1 31.3-.4.4-.3.7-32.2.7-70.9l-.2-70.4-28.8-.1c-17.3-.1-30.7.3-33.5 1z"/></svg>